# xmcd
#
# Track frame offsets:
#	150
#	15997
#	29881
#	47018
#	64322
#	78488
#	98151
#	116943
#	133744
#	151513
#	166245
#	176774
#	188265
#	198937
#	212432
#	231725
#	244574
#	255148
#	270108
#	286227
#	295516
#
# Disc length: 4146 seconds
# Revision: 1
# Processed by: cddbd v1.5.2PL0 Copyright (c) Steve Scherf et al.
# Submitted via: dBpowerAMP V12.0
#
DISCID=15103015
DTITLE=Various Artist - Ray Hadlees Country Music Collection V2
DYEAR=2011
DGENRE=Country
TTITLE0=Kasey Chambers - Little Bird
TTITLE1=Catherine Britt - Sweet Emmylou
TTITLE2=Toby Keith - As Good as I Was Once
TTITLE3=Trisha Yearwood - There Goes My Baby
TTITLE4=Eddie Rabbit - I Love a Rainy Night
TTITLE5=Brooks and Dunn - Red Dirt Road
TTITLE6=John Williamson - A Bushman Cant Survive
TTITLE7=Melinda Schneider - Cry a Little
TTITLE8=Sara Storer - Buffalo Bill
TTITLE9=Amber Lawrence - Dont Do Lonely Well
TTITLE10=Willie Nelson - Blue Eyes Crying in the Rain
TTITLE11=Marty Robbins - The Stroy of My Life
TTITLE12=Ricky Van Shelton - From a Jack to a King
TTITLE13=Loretta Lynn - Coal Miners Daughter
TTITLE14=Ronnie Milsap - Lost in the Fifties Tonight
TTITLE15=Jim Reeves - Distand Drums
TTITLE16=The Statler Brothers - Flowers on the Wall
TTITLE17=Waylon Jennings - Luuckenback Texas
TTITLE18=Billie Jo Spears - Blanket on the Ground
TTITLE19=Charley Pride - Kiss an Angel Good Mornin
TTITLE20=Cash Backman - My Girl Bill
EXTD=
EXTT0=
EXTT1=
EXTT2=
EXTT3=
EXTT4=
EXTT5=
EXTT6=
EXTT7=
EXTT8=
EXTT9=
EXTT10=
EXTT11=
EXTT12=
EXTT13=
EXTT14=
EXTT15=
EXTT16=
EXTT17=
EXTT18=
EXTT19=
EXTT20=
PLAYORDER=
